#!OML:ASF F:\VICON\USERDATA\INSTALL\rory3\rory3.ASF
:FULLY-SPECIFIED
:DEGREES
2912
root 1.73301 17.6006 -3.49121 -3.86988 62.5596 -5.23039
lowerback 5.77799 -6.02324 -6.52468
upperback 1.67397 -8.3506 1.69721
thorax -0.292626 -4.21354 5.79365
lowerneck -14.7972 -12.6823 -16.4628
upperneck 22.3819 -16.0221 9.33129
head 11.9241 -7.64446 3.5007
rclavicle 1.65488e-014 -1.98785e-014
rhumerus -12.9244 0.792524 -58.0278
rradius 73.4615
rwrist 41.9001
rhand -49.996 -9.35425
rfingers 7.12502
rthumb -22.5852 -38.0531
lclavicle 1.65488e-014 -1.98785e-014
lhumerus 7.97713 -45.2361 80.4103
lradius 59.0952
lwrist -29.6531
lhand -34.9307 31.1353
lfingers 7.12502
lthumb -8.07793 -299.039
rfemur -22.8644 -2.81138 12.4774
rtibia 28.6935
rfoot -8.26368 -15.4513
rtoes 6.80537
lfemur -9.8841 4.87086 -15.7602
ltibia 33.0208
lfoot -19.0806 5.33577
ltoes -16.475
2913
root 1.75069 17.5934 -3.46895 -3.73507 62.4696 -5.13873
lowerback 5.8477 -6.23324 -6.47393
upperback 1.58922 -8.63389 1.78922
thorax -0.370892 -4.35111 5.88086
lowerneck -15.097 -12.584 -16.4476
upperneck 22.4967 -15.7898 9.13375
head 11.9715 -7.55025 3.45678
rclavicle 9.09937e-014 -1.19271e-015
rhumerus -11.1217 -1.01282 -56.8988
rradius 74.8833
rwrist 43.9814
rhand -52.3981 -11.7563
rfingers 7.12502
rthumb -24.8891 -40.1559
lclavicle 9.09937e-014 -1.19271e-015
lhumerus 11.609 -44.9506 78.5365
lradius 59.5819
lwrist -31.3794
lhand -37.2268 32.0872
lfingers 7.12502
lthumb -10.2934 -298.185
rfemur -22.6548 -2.56689 12.2563
rtibia 27.992
rfoot -8.11261 -15.8582
rtoes 7.01736
lfemur -9.85072 5.05935 -15.7242
ltibia 33.0739
lfoot -19.263 5.1876
ltoes -16.1672
2914
root 1.76487 17.5876 -3.4438 -3.57181 62.351 -4.9954
lowerback 5.96988 -6.39451 -6.41619
upperback 1.49073 -8.8556 1.82344
thorax -0.511662 -4.45421 5.91263
lowerneck -15.3129 -12.4494 -16.2631
upperneck 22.5153 -15.5461 8.90091
head 11.9446 -7.44533 3.38226
rclavicle -2.29348e-014 -2.38542e-015
rhumerus -9.43443 -2.89854 -55.8696
rradius 76.3456
rwrist 45.9777
rhand -55.474 -13.0751
rfingers 7.12502
rthumb -27.8334 -41.0335
lclavicle -2.29348e-014 -2.38542e-015
lhumerus 15.3515 -44.5474 76.5967
lradius 60.0552
lwrist -32.9682
lhand -39.0274 33.2252
lfingers 7.12502
lthumb -12.03 -297.141
rfemur -22.4988 -2.42213 12.0615
rtibia 27.5118
rfoot -7.84742 -16.0602
rtoes 7.43755
lfemur -9.81276 5.29496 -15.6975
ltibia 33.1452
lfoot -19.4623 5.02324
ltoes -15.9143
2915
root 1.7787 17.58 -3.41489 -3.17779 62.1465 -4.56988
lowerback 5.99899 -6.5193 -6.56214
upperback 1.46682 -9.03336 1.8314
thorax -0.502255 -4.54374 6.00806
lowerneck -15.6197 -12.3097 -16.1181
upperneck 22.5178 -15.2971 8.76601
head 11.9424 -7.32728 3.34612
rclavicle 5.16592e-014 2.78299e-015
rhumerus -7.63606 -4.70119 -54.8761
rradius 77.8981
rwrist 47.8352
rhand -58.5072 -14.9106
rfingers 7.12502
rthumb -30.7296 -42.3633
lclavicle 5.16592e-014 2.78299e-015
lhumerus 19.1627 -43.8321 74.6585
lradius 60.6355
lwrist -34.5223
lhand -40.6196 34.559
lfingers 7.12502
lthumb -13.565 -295.903
rfemur -22.3792 -2.2682 11.7655
rtibia 27.2354
rfoot -7.62729 -15.9409
rtoes 8.80995
lfemur -9.72884 5.61842 -15.7865
ltibia 33.2369
lfoot -19.6691 4.81153
ltoes -15.3083
2916
root 1.79143 17.5692 -3.38888 -2.91669 61.9071 -4.36588
lowerback 5.99515 -6.67097 -6.57035
upperback 1.46348 -9.23506 1.9065
thorax -0.459233 -4.64743 6.09219
lowerneck -16.1119 -12.1901 -16.1051
upperneck 22.5565 -15.0412 8.72673
head 12.011 -7.19965 3.35683
rclavicle 1.25483e-014 7.95139e-016
rhumerus -5.64094 -6.32451 -53.9367
rradius 79.6113
rwrist 49.0557
rhand -60.4449 -17.1801
rfingers 7.12502
rthumb -32.5753 -44.2689
lclavicle 1.25483e-014 7.95139e-016
lhumerus 22.8269 -42.6937 73.0127
lradius 61.1234
lwrist -36.2307
lhand -42.0436 36.0215
lfingers 7.12502
lthumb -14.9371 -294.537
rfemur -22.364 -2.06059 11.6153
rtibia 27.1495
rfoot -7.61815 -15.7493
rtoes 8.52236
lfemur -9.73422 5.89259 -15.7926
ltibia 33.3494
lfoot -19.8328 4.78436
ltoes -15.6295
2917
root 1.802 17.555 -3.36429 -2.80071 61.567 -4.31631
lowerback 6.14769 -6.80323 -6.42848
upperback 1.38817 -9.41284 1.98887
thorax -0.603948 -4.72893 6.13139
lowerneck -16.6677 -12.0401 -15.9979
upperneck 22.6988 -14.7115 8.50008
head 12.0965 -7.05096 3.29652
rclavicle -3.83157e-014 3.97569e-015
rhumerus -3.60724 -7.70118 -53.0034
rradius 81.3449
rwrist 49.6995
rhand -61.958 -19.45
rfingers 7.12502
rthumb -34.0138 -46.2307
lclavicle -3.83157e-014 3.97569e-015
lhumerus 26.2278 -41.4583 71.5641
lradius 61.5622
lwrist -37.7786
lhand -42.9559 36.7632
lfingers 7.12502
lthumb -15.8159 -293.863
rfemur -22.4071 -1.77231 11.5879
rtibia 27.2096
rfoot -7.71821 -15.4053
rtoes 7.18176
lfemur -9.75043 6.27192 -15.7267
ltibia 33.4946
lfoot -19.9699 4.95283
ltoes -16.6639
2918
root 1.81284 17.5365 -3.33698 -2.46635 61.1484 -3.96107
lowerback 6.3447 -6.88205 -6.39639
upperback 1.33664 -9.52833 2.00404
thorax -0.751697 -4.77921 6.16461
lowerneck -17.2 -11.9222 -15.8769
upperneck 22.7756 -14.4339 8.28469
head 12.1602 -6.92491 3.22926
rclavicle 1.19867e-013 -1.86858e-014
rhumerus -1.49629 -8.95439 -52.0786
rradius 82.8479
rwrist 50.0813
rhand -63.5611 -22.5234
rfingers 7.12502
rthumb -35.535 -48.9528
lclavicle 1.19867e-013 -1.86858e-014
lhumerus 29.4366 -40.0077 70.4517
lradius 61.8918
lwrist -39.8345
lhand -45.5401 42.033
lfingers 7.12502
lthumb -18.3033 -288.808
rfemur -22.4758 -1.65382 11.4928
rtibia 27.3805
rfoot -7.65665 -14.6287
rtoes 6.5092
lfemur -9.69207 6.66278 -15.7993
ltibia 33.6502
lfoot -20.0994 5.11339
ltoes -17.5281
2919
root 1.82191 17.5211 -3.30897 -2.17371 60.7298 -3.68896
lowerback 6.54186 -7.0029 -6.34088
upperback 1.25801 -9.69846 2.05152
thorax -0.917723 -4.85569 6.22287
lowerneck -17.621 -11.7882 -15.9209
upperneck 22.7106 -14.1445 8.24973
head 12.1769 -6.79101 3.26196
rclavicle 1.59028e-015 -1.78906e-015
rhumerus 0.770364 -9.95694 -51.1852
rradius 84.1054
rwrist 50.3053
rhand -65.1017 -26.4302
rfingers 7.12502
rthumb -36.9938 -52.4963
lclavicle 1.59028e-015 -1.78906e-015
lhumerus 32.3054 -38.3354 69.7131
lradius 62.2921
lwrist -40.9446
lhand -47.166 44.6585
lfingers 7.12502
lthumb -19.8669 -286.337
rfemur -22.6043 -1.56203 11.4899
rtibia 27.6002
rfoot -7.52469 -13.6271
rtoes 6.50919
lfemur -9.67034 6.89391 -15.8264
ltibia 33.8184
lfoot -20.2152 5.24134
ltoes -17.856
2920
root 1.83098 17.5078 -3.2768 -1.72655 60.2721 -3.26317
lowerback 6.69368 -7.14469 -6.37973
upperback 1.15564 -9.90198 2.05597
thorax -1.07018 -4.94853 6.28453
lowerneck -17.9765 -11.5814 -15.8654
upperneck 22.5597 -13.7819 8.20419
head 12.1276 -6.62018 3.29445
rclavicle -3.82412e-014 -1.09332e-014
rhumerus 3.20729 -10.8594 -50.3949
rradius 85.0114
rwrist 50.7517
rhand -66.6676 -31.1733
rfingers 7.12502
rthumb -38.4733 -56.8421
lclavicle -3.82412e-014 -1.09332e-014
lhumerus 35.1288 -36.8857 68.638
lradius 61.9651
lwrist -42.0952
lhand -49.3813 51.4031
lfingers 7.12502
lthumb -21.9952 -279.827
rfemur -22.7911 -1.4562 11.4366
rtibia 27.8457
rfoot -7.37167 -12.8191
rtoes 6.2514
lfemur -9.64809 7.08896 -15.9451
ltibia 33.9722
lfoot -20.299 5.43991
ltoes -17.9457
2921
root 1.84073 17.499 -3.24377 -1.69052 59.773 -3.33987
lowerback 6.81431 -7.27564 -6.09661
upperback 1.09445 -10.0647 2.04387
thorax -1.22695 -5.02161 6.14967
lowerneck -18.4712 -11.4254 -15.6855
upperneck 22.5371 -13.532 8.20596
head 12.1642 -6.47903 3.29802
rclavicle 1.04635e-013 -2.78299e-015
rhumerus 5.75149 -11.8554 -49.7479
rradius 85.2114
rwrist 51.268
rhand -68.3011 -36.005
rfingers 7.12502
rthumb -40.0126 -61.2273
lclavicle 1.04635e-013 -2.78299e-015
lhumerus 38.0909 -35.5981 67.3249
lradius 61.2819
lwrist -42.1269
lhand -51.5393 58.6535
lfingers 7.12502
lthumb -24.0658 -272.836
rfemur -23.0598 -1.3065 11.6787
rtibia 28.0683
rfoot -7.27791 -12.6026
rtoes 6.17354
lfemur -9.6478 7.33837 -15.7871
ltibia 34.1273
lfoot -20.377 5.69846
ltoes -18.5353
2922
root 1.84775 17.4932 -3.21399 -1.67964 59.2018 -3.43421
lowerback 7.03506 -7.36213 -5.86604
upperback 1.00944 -10.1758 2.07929
thorax -1.45458 -5.06597 6.10899
lowerneck -18.917 -11.3175 -15.5847
upperneck 22.5627 -13.3456 8.22894
head 12.2278 -6.37161 3.31119
rclavicle -1.27396e-013 -2.5842e-015
rhumerus 8.38554 -12.8044 -49.127
rradius 84.6246
rwrist 51.6032
rhand -70.1284 -41.1475
rfingers 7.12502
rthumb -41.7292 -65.8276
lclavicle -1.27396e-013 -2.5842e-015
lhumerus 40.993 -34.2492 66.2041
lradius 60.4098
lwrist -41.5198
lhand -53.179 61.5391
lfingers 7.12502
lthumb -25.6372 -270.167
rfemur -23.4222 -1.15724 11.9417
rtibia 28.3095
rfoot -7.18117 -12.5969
rtoes 6.60661
lfemur -9.62205 7.63735 -15.6009
ltibia 34.2619
lfoot -20.4682 5.85842
ltoes -18.8271
2923
root 1.85451 17.4885 -3.18048 -1.24698 58.5309 -3.10792
lowerback 7.10437 -7.45255 -5.93762
upperback 0.888952 -10.3094 2.07707
thorax -1.58715 -5.12421 6.1712
lowerneck -19.1496 -11.1027 -15.3766
upperneck 22.4638 -13.0345 8.1434
head 12.1674 -6.21998 3.30141
rclavicle 4.67144e-015 -5.56597e-015
rhumerus 11.2771 -13.5176 -48.7298
rradius 83.0997
rwrist 51.9876
rhand -71.7931 -47.5093
rfingers 7.12502
rthumb -43.2876 -71.6528
lclavicle 4.67144e-015 -5.56597e-015
lhumerus 43.7325 -32.8546 64.9934
lradius 59.0586
lwrist -41.2714
lhand -53.7291 62.5109
lfingers 7.12502
lthumb -26.164 -90.728
rfemur -23.9123 -0.94277 11.9699
rtibia 28.5728
rfoot -6.96303 -12.3423
rtoes 7.70271
lfemur -9.63424 8.04006 -15.6565
ltibia 34.3958
lfoot -20.5177 6.06022
ltoes -19.2395
2924
root 1.86273 17.4823 -3.14435 -0.610692 57.798 -2.55783
lowerback 7.08338 -7.57736 -6.11044
upperback 0.745068 -10.4957 1.96467
thorax -1.68943 -5.20827 6.16412
lowerneck -19.2483 -10.8082 -15.169
upperneck 22.3442 -12.6922 8.26736
head 12.0867 -6.0339 3.38241
rclavicle -4.46023e-014 3.18055e-015
rhumerus 14.4032 -13.9795 -48.5142
rradius 80.5235
rwrist 52.3482
rhand -72.6424 -51.3573
rfingers 7.12502
rthumb -44.0805 -75.2101
lclavicle -4.46023e-014 3.18055e-015
lhumerus 46.308 -31.4487 63.6757
lradius 57.2777
lwrist -40.6227
lhand -53.6888 65.274
lfingers 7.12502
lthumb -26.1254 -93.4967
rfemur -24.4652 -0.721924 11.8978
rtibia 28.9019
rfoot -6.56437 -11.9108
rtoes 8.15664
lfemur -9.64775 8.50765 -15.8699
ltibia 34.5183
lfoot -20.4812 6.46185
ltoes -20.3041
2925
root 1.87164 17.478 -3.11202 -0.291024 57.0309 -2.27279
lowerback 7.29764 -7.72436 -6.10734
upperback 0.524943 -10.7129 1.8765
thorax -2.02374 -5.29593 6.1364
lowerneck -19.3227 -10.4922 -15.0521
upperneck 22.3841 -12.3165 8.42628
head 12.0689 -5.83711 3.4982
rclavicle -4.17448e-015 -1.80894e-014
rhumerus 17.5088 -14.0805 -48.1435
rradius 77.2811
rwrist 52.4332
rhand -72.3562 -46.6416
rfingers 7.12502
rthumb -43.8135 -70.5937
lclavicle -4.17448e-015 -1.80894e-014
lhumerus 48.4431 -29.9566 62.7747
lradius 55.0057
lwrist -40.4184
lhand -53.2371 67.3559
lfingers 7.12502
lthumb -25.6928 -95.6419
rfemur -24.9631 -0.44389 11.9753
rtibia 29.2945
rfoot -6.30522 -11.6462
rtoes 9.85664
lfemur -9.55314 8.86877 -15.9224
ltibia 34.6516
lfoot -20.4877 6.70189
ltoes -20.571
